<?xml version="1.0" encoding="utf-8"?>
<!-- Generator: Adobe Illustrator 23.0.5, SVG Export Plug-In . SVG Version: 6.00 Build 0)  -->
<svg version="1.1" id="Calque_1" xmlns="http://www.w3.org/2000/svg" xmlns:xlink="http://www.w3.org/1999/xlink" x="0px" y="0px"
	 viewBox="0 0 300 57.8" style="enable-background:new 0 0 300 57.8;" xml:space="preserve">
<style type="text/css">
	.st0{fill:#FFFFFF;}
</style>
<g>
	<path class="st0" d="M6,23.8c0,0.3-0.3,1.3-0.8,3.1c-0.2,0.8-0.4,1.6-0.4,2.1c0,0.4-0.1,0.8-0.2,1.3c-0.3,1.9-0.4,3.2-0.4,3.9
		c0,1.1,0.1,2.1,0.2,3.1c0.1,0.6,0,1-0.3,1.3S3.5,39,3.3,39c-0.4,0-0.7-0.2-0.8-0.7c-0.2-0.5-0.2-1.2-0.2-2.2c0-1.1,0.1-2.5,0.4-4.4
		c0.1-0.7,0.2-1.1,0.2-1.3c0-0.3,0-0.5,0.1-0.8C2.9,29.5,3,29.2,3,29c0-0.7,0.2-1.6,0.4-2.7c0.2-0.8,0.3-1.6,0.4-2.2
		c0.1-0.4,0.1-0.8,0.2-0.9c0.1-0.2,0.2-0.3,0.5-0.5c0.3-0.2,0.5-0.3,0.6-0.3c0.3,0,0.5,0.2,0.7,0.5C6,23.1,6,23.4,6,23.8z"/>
	<path class="st0" d="M13.3,27.4c0.8-0.1,1.5-0.1,2.2-0.2c0.7-0.1,1.2-0.1,1.7-0.1c0.6,0,0.9,0.1,1.1,0.2c0.1,0.1,0.2,0.3,0.2,0.5
		c0,0.6-0.4,0.9-1.3,1c-1.1,0.1-2.1,0.2-3,0.3c-0.9,0.1-1.4,0.2-1.5,0.3c-0.1,0.1-0.3,1-0.7,2.7c-0.4,1.7-0.6,2.8-0.6,3.3
		c0,0.8,0.1,1.4,0.3,1.6c0.2,0.3,0.5,0.4,1,0.4c0.6,0,1.5-0.5,2.7-1.4c0.4-0.4,0.8-0.6,1-0.6c0.3,0,0.5,0.2,0.5,0.5
		c0,0.5-0.5,1.2-1.6,2.1s-2.1,1.3-3.2,1.3c-1.8,0-2.7-1.1-2.7-3.2c0-0.8,0.2-2,0.6-3.6c0.4-1.6,0.5-2.6,0.5-2.9
		c0-0.1-0.1-0.2-0.3-0.2l-1.2,0.1c-1,0-1.4-0.4-1.4-1.1c0-0.4,0.2-0.7,0.7-0.7h2.3c0.2,0,0.3-0.1,0.4-0.2c0.1-0.1,0.3-0.6,0.5-1.4
		c0.2-0.8,0.4-1.6,0.6-2.4c0.2-0.8,0.5-1.2,1.1-1.2c0.3,0,0.6,0.1,0.8,0.3c0.2,0.2,0.3,0.4,0.3,0.6c0,0.1-0.1,0.6-0.4,1.6L13.3,27.4
		z"/>
	<path class="st0" d="M19.8,20.9c0-0.1,0.2-0.2,0.5-0.3c0.3-0.1,0.5-0.2,0.6-0.2c0.1,0,0.4,0.2,0.7,0.5l0.3,0.3
		c0.3,0.3,0.6,0.7,0.8,1.2c0.1,0.2,0.1,0.4,0.1,0.8c0,0.6-0.2,1.6-0.7,2.9s-1,1.9-1.6,1.9c-0.2,0-0.4-0.1-0.6-0.2
		c-0.2-0.1-0.2-0.3-0.2-0.5c0-0.4,0.2-0.7,0.5-1c0.7-0.6,1.1-1.4,1.1-2.4c0-0.4-0.3-0.8-1-1.4c-0.2-0.2-0.3-0.3-0.4-0.3
		c0,0-0.1-0.3-0.1-0.6C19.8,21.2,19.8,21,19.8,20.9z"/>
	<path class="st0" d="M30.6,36.1c0-0.5-0.6-1-1.8-1.7c-1.5-0.8-2.5-1.4-3.1-1.9c-0.5-0.5-0.8-1-0.8-1.6c0-1.5,0.7-2.7,2.2-3.7
		s2.7-1.5,3.7-1.5c0.6,0,1,0.1,1.3,0.3c0.3,0.2,0.4,0.6,0.4,1.1c0,0.2-0.1,0.4-0.3,0.6s-0.4,0.2-0.5,0.2c-0.1,0-0.2-0.1-0.5-0.2
		c-0.2-0.1-0.4-0.2-0.5-0.2c-0.4,0-1.1,0.3-2.3,0.8s-1.7,1.2-1.7,1.9c0,0.4,0.2,0.8,0.6,1.1c0.4,0.3,1.1,0.8,2.2,1.3
		c0.8,0.4,1.5,0.8,2,1.3s0.8,1,0.8,1.6c0,1.1-0.8,2-2.4,2.7c-1.6,0.6-3.1,1-4.5,1c-1.2,0-1.8-0.4-1.8-1.2c0-0.3,0.1-0.5,0.4-0.6
		s0.5-0.2,0.8-0.2c0.1,0,0.3,0,0.6,0.1c0.3,0.1,0.5,0.1,0.6,0.1c0.8,0,1.7-0.1,2.7-0.4C29.8,36.9,30.4,36.5,30.6,36.1z"/>
	<path class="st0" d="M47.2,39.2c-1,0-1.9-0.4-2.5-1.2c-0.7-0.8-1-1.7-1-2.9c0-1.9,0.6-3.8,1.9-5.7c1.3-1.9,2.9-2.8,4.7-2.8
		c1.2,0,2.2,0.5,2.9,1.4c0.7,0.9,1.1,2,1.1,3.3c0,1.9-0.8,3.7-2.3,5.4C50.4,38.4,48.8,39.2,47.2,39.2z M45.6,34.9
		c0,0.8,0.2,1.4,0.5,1.9c0.3,0.5,0.7,0.7,1.3,0.7c1.1,0,2.2-0.6,3.4-1.8c1.1-1.2,1.7-2.6,1.7-4.1c0-0.9-0.2-1.7-0.6-2.2
		c-0.4-0.6-1-0.9-1.7-0.9c-1.2,0-2.2,0.7-3.1,2.2C46.1,32.2,45.6,33.6,45.6,34.9z"/>
	<path class="st0" d="M64.8,33.8c-1,1.6-1.9,2.9-2.9,3.7c-1,0.9-1.9,1.3-2.8,1.3c-0.5,0-1-0.3-1.5-0.9c-0.5-0.6-0.8-1.5-0.8-2.7
		c0-1,0.2-2.4,0.7-4.3c0.4-1.6,0.6-2.7,0.6-3.4c0.2-0.4,0.6-0.7,1-0.7c0.3,0,0.6,0.1,0.8,0.3c0.2,0.2,0.3,0.5,0.3,0.7
		c0,0.5-0.2,1.3-0.5,2.2c-0.7,1.9-1,3.5-1,4.8c0,1.2,0.3,1.8,0.9,1.8c0.7,0,1.6-0.6,2.8-1.9s2.1-3,2.9-5.2c0.3-0.9,0.6-1.5,0.8-1.7
		c0.2-0.3,0.5-0.4,0.8-0.4c0.5,0,0.8,0.3,0.8,1c0,0.1-0.1,0.4-0.2,0.8c-0.4,1.6-0.7,3.2-0.7,4.6c0,1.8,0.3,2.9,0.9,3.4
		c0.3,0.3,0.4,0.5,0.4,0.7c0,0.2-0.2,0.4-0.5,0.6s-0.6,0.3-0.8,0.3c-0.5,0-0.9-0.4-1.3-1.2c-0.3-0.8-0.5-1.9-0.5-3.4v-0.4
		C64.8,34,64.8,33.9,64.8,33.8z"/>
	<path class="st0" d="M73.2,34.2c0.1-0.1,0.2-0.3,0.3-0.6c0.5-1.2,1-2.1,1.4-2.7c0.4-0.7,0.9-1.3,1.4-1.9c0.5-0.6,1-1.1,1.4-1.4
		c0.4-0.3,0.8-0.5,1.1-0.7c0.3-0.1,0.7-0.2,1-0.2c0.7,0,1.2,0.2,1.6,0.6s0.6,0.9,0.6,1.4c0,0.2-0.1,0.4-0.2,0.6
		c-0.1,0.2-0.4,0.3-0.7,0.3c-0.3,0-0.6-0.1-0.9-0.4c-0.3-0.3-0.5-0.4-0.8-0.4c-0.8,0-1.9,0.9-3.2,2.8c-1.4,1.9-2.2,4-2.5,6.2
		c-0.1,0.6-0.2,1-0.4,1.2c-0.2,0.2-0.5,0.3-0.9,0.3c-0.4,0-0.6-0.3-0.8-0.8c-0.2-0.5-0.2-1.5-0.2-2.8c0-0.4,0-1.1,0.1-2.3
		c0-1.4,0.1-2.6,0.3-3.4c0-0.1,0.1-0.5,0.1-1c0.1-0.6,0.1-1,0.2-1.2c0.1-0.2,0.2-0.4,0.5-0.6c0.2-0.2,0.5-0.3,0.8-0.3
		c0.3,0,0.5,0.1,0.6,0.3c0.1,0.2,0.2,0.4,0.2,0.6c0,0.3-0.1,0.7-0.2,1.2c-0.2,0.6-0.3,1-0.3,1.2c0,0.3-0.1,0.5-0.1,0.8
		c-0.1,0.3-0.1,1.2-0.2,2.5l0,0.4V34.2z"/>
	<path class="st0" d="M96.4,27.4c0.8-0.1,1.5-0.1,2.2-0.2c0.7-0.1,1.2-0.1,1.7-0.1c0.6,0,0.9,0.1,1.1,0.2c0.1,0.1,0.2,0.3,0.2,0.5
		c0,0.6-0.4,0.9-1.3,1c-1.1,0.1-2.1,0.2-3,0.3c-0.9,0.1-1.4,0.2-1.5,0.3c-0.1,0.1-0.3,1-0.7,2.7c-0.4,1.7-0.6,2.8-0.6,3.3
		c0,0.8,0.1,1.4,0.3,1.6c0.2,0.3,0.5,0.4,1,0.4c0.6,0,1.5-0.5,2.7-1.4c0.4-0.4,0.8-0.6,1-0.6c0.3,0,0.5,0.2,0.5,0.5
		c0,0.5-0.5,1.2-1.6,2.1s-2.1,1.3-3.2,1.3c-1.8,0-2.7-1.1-2.7-3.2c0-0.8,0.2-2,0.6-3.6c0.4-1.6,0.5-2.6,0.5-2.9
		c0-0.1-0.1-0.2-0.3-0.2l-1.2,0.1c-1,0-1.4-0.4-1.4-1.1c0-0.4,0.2-0.7,0.7-0.7h2.3c0.2,0,0.3-0.1,0.4-0.2c0.1-0.1,0.3-0.6,0.5-1.4
		c0.2-0.8,0.4-1.6,0.6-2.4c0.2-0.8,0.5-1.2,1.1-1.2c0.3,0,0.6,0.1,0.8,0.3c0.2,0.2,0.3,0.4,0.3,0.6c0,0.1-0.1,0.6-0.4,1.6L96.4,27.4
		z"/>
	<path class="st0" d="M110.5,33.8c-1,1.6-1.9,2.9-2.9,3.7c-1,0.9-1.9,1.3-2.8,1.3c-0.5,0-1-0.3-1.5-0.9c-0.5-0.6-0.8-1.5-0.8-2.7
		c0-1,0.2-2.4,0.7-4.3c0.4-1.6,0.6-2.7,0.6-3.4c0.2-0.4,0.6-0.7,1-0.7c0.3,0,0.6,0.1,0.8,0.3c0.2,0.2,0.3,0.5,0.3,0.7
		c0,0.5-0.2,1.3-0.5,2.2c-0.7,1.9-1,3.5-1,4.8c0,1.2,0.3,1.8,0.9,1.8c0.7,0,1.6-0.6,2.8-1.9s2.1-3,2.9-5.2c0.3-0.9,0.6-1.5,0.8-1.7
		c0.2-0.3,0.5-0.4,0.8-0.4c0.5,0,0.8,0.3,0.8,1c0,0.1-0.1,0.4-0.2,0.8c-0.4,1.6-0.7,3.2-0.7,4.6c0,1.8,0.3,2.9,0.9,3.4
		c0.3,0.3,0.4,0.5,0.4,0.7c0,0.2-0.2,0.4-0.5,0.6s-0.6,0.3-0.8,0.3c-0.5,0-0.9-0.4-1.3-1.2c-0.3-0.8-0.5-1.9-0.5-3.4v-0.4
		C110.5,34,110.5,33.9,110.5,33.8z"/>
	<path class="st0" d="M118.8,34.2c0.1-0.1,0.2-0.3,0.3-0.6c0.5-1.2,1-2.1,1.4-2.7c0.4-0.7,0.9-1.3,1.4-1.9c0.5-0.6,1-1.1,1.4-1.4
		c0.4-0.3,0.8-0.5,1.1-0.7c0.3-0.1,0.7-0.2,1-0.2c0.7,0,1.2,0.2,1.6,0.6s0.6,0.9,0.6,1.4c0,0.2-0.1,0.4-0.2,0.6
		c-0.1,0.2-0.4,0.3-0.7,0.3c-0.3,0-0.6-0.1-0.9-0.4c-0.3-0.3-0.5-0.4-0.8-0.4c-0.8,0-1.9,0.9-3.2,2.8c-1.4,1.9-2.2,4-2.5,6.2
		c-0.1,0.6-0.2,1-0.4,1.2c-0.2,0.2-0.5,0.3-0.9,0.3c-0.4,0-0.6-0.3-0.8-0.8c-0.2-0.5-0.2-1.5-0.2-2.8c0-0.4,0-1.1,0.1-2.3
		c0-1.4,0.1-2.6,0.3-3.4c0-0.1,0.1-0.5,0.1-1c0.1-0.6,0.1-1,0.2-1.2c0.1-0.2,0.2-0.4,0.5-0.6c0.2-0.2,0.5-0.3,0.8-0.3
		c0.3,0,0.5,0.1,0.6,0.3c0.1,0.2,0.2,0.4,0.2,0.6c0,0.3-0.1,0.7-0.2,1.2c-0.2,0.6-0.3,1-0.3,1.2c0,0.3-0.1,0.5-0.1,0.8
		c-0.1,0.3-0.1,1.2-0.2,2.5l0,0.4V34.2z"/>
	<path class="st0" d="M136.4,30.1c-0.4,0-0.8,0.3-1.3,0.8c-0.5,0.5-1.2,1.6-2.1,3.4c-1.2,2.4-2,3.7-2.4,4.1
		c-0.4,0.3-0.7,0.5-0.9,0.5c-0.9,0-1.3-0.4-1.3-1.3c0-0.4,0.1-0.9,0.2-1.5c0.4-2.3,0.6-4.6,0.6-7.1c0-0.3,0.1-0.6,0.4-0.9
		c0.2-0.3,0.5-0.5,0.7-0.5c0.4,0,0.7,0.1,0.8,0.4s0.2,0.7,0.2,1.4c0,0.8-0.2,2.3-0.7,4.7c-0.1,0.8-0.2,1.3-0.2,1.5
		c0,0.1,0,0.2,0.1,0.2c0.1,0,0.6-0.9,1.6-2.7c0.9-1.8,1.8-3.1,2.5-3.8c0.7-0.7,1.5-1.1,2.3-1.1c0.7,0,1.2,0.3,1.6,0.9
		c0.4,0.6,0.7,1.7,0.9,3.4c0.2,1.8,0.4,3,0.6,3.4c0.2,0.5,0.4,0.7,0.8,0.7c0.2,0,0.5-0.1,0.9-0.2c0.1,0,0.1,0,0.1,0
		c0.3,0,0.5,0.2,0.5,0.6c0,0.3-0.2,0.7-0.7,1c-0.4,0.4-1,0.6-1.6,0.6c-0.6,0-1.1-0.3-1.5-0.8s-0.6-1.9-0.8-4
		C137.5,31.2,137,30.1,136.4,30.1z"/>
	<path class="st0" d="M155.4,39.2c-0.1,0.2-0.2,0.3-0.4,0.5c-0.2,0.1-0.5,0.2-0.7,0.2c-0.8,0-1.1-0.6-1.1-1.7c0-0.5,0.2-2,0.5-4.5
		c0.2-1.5,0.3-2.7,0.3-3.5c0-0.1-0.2-0.3-0.5-0.5c-0.3-0.2-0.5-0.4-0.5-0.6c0-0.3,0.2-0.7,0.7-1c0.4-0.3,0.6-0.6,0.7-1
		s0.2-0.9,0.3-1.5c0.4-2.3,1-4,1.8-5c0.8-1,1.8-1.5,3.1-1.5c0.7,0,1.2,0.2,1.7,0.7c0.5,0.5,0.7,1,0.7,1.7c0,0.5-0.1,1.2-0.4,1.9
		c-0.3,0.7-0.6,1-0.9,1c-0.2,0-0.4-0.1-0.4-0.4l0.1-1.1c0-1.4-0.4-2.2-1.2-2.2c-0.9,0-1.6,0.9-2.2,2.6c-0.6,1.7-0.9,3.1-0.9,4.2
		c0,0.3,0.2,0.5,0.7,0.5c2,0,3.1,0,3.4,0c0.3,0,0.5,0.1,0.5,0.4c0,0.3-0.2,0.5-0.6,0.7c-0.4,0.2-1.2,0.3-2.5,0.4
		c-1.1,0.1-1.7,0.2-1.8,0.3c-0.5,2.8-0.8,5.3-0.8,7.4c0,0.7,0,1.1,0.1,1.4C155.3,38.9,155.4,39.1,155.4,39.2z"/>
	<path class="st0" d="M165,39.2c-1,0-1.9-0.4-2.5-1.2c-0.7-0.8-1-1.7-1-2.9c0-1.9,0.6-3.8,1.9-5.7c1.3-1.9,2.9-2.8,4.7-2.8
		c1.2,0,2.2,0.5,2.9,1.4c0.7,0.9,1.1,2,1.1,3.3c0,1.9-0.8,3.7-2.3,5.4C168.2,38.4,166.6,39.2,165,39.2z M163.4,34.9
		c0,0.8,0.2,1.4,0.5,1.9s0.7,0.7,1.3,0.7c1.1,0,2.2-0.6,3.4-1.8c1.1-1.2,1.7-2.6,1.7-4.1c0-0.9-0.2-1.7-0.6-2.2
		c-0.4-0.6-1-0.9-1.7-0.9c-1.2,0-2.2,0.7-3.1,2.2C163.8,32.2,163.4,33.6,163.4,34.9z"/>
	<path class="st0" d="M176.9,34.2c0.1-0.1,0.2-0.3,0.3-0.6c0.5-1.2,1-2.1,1.4-2.7c0.4-0.7,0.9-1.3,1.4-1.9c0.5-0.6,1-1.1,1.4-1.4
		c0.4-0.3,0.8-0.5,1.1-0.7c0.3-0.1,0.7-0.2,1-0.2c0.7,0,1.2,0.2,1.6,0.6s0.6,0.9,0.6,1.4c0,0.2-0.1,0.4-0.2,0.6
		c-0.1,0.2-0.4,0.3-0.7,0.3c-0.3,0-0.6-0.1-0.9-0.4c-0.3-0.3-0.5-0.4-0.8-0.4c-0.8,0-1.9,0.9-3.2,2.8c-1.4,1.9-2.2,4-2.5,6.2
		c-0.1,0.6-0.2,1-0.4,1.2c-0.2,0.2-0.5,0.3-0.9,0.3c-0.4,0-0.6-0.3-0.8-0.8c-0.2-0.5-0.2-1.5-0.2-2.8c0-0.4,0-1.1,0.1-2.3
		c0-1.4,0.1-2.6,0.3-3.4c0-0.1,0.1-0.5,0.1-1c0.1-0.6,0.1-1,0.2-1.2c0.1-0.2,0.2-0.4,0.5-0.6c0.2-0.2,0.5-0.3,0.8-0.3
		c0.3,0,0.5,0.1,0.6,0.3s0.2,0.4,0.2,0.6c0,0.3-0.1,0.7-0.2,1.2c-0.2,0.6-0.3,1-0.3,1.2c0,0.3-0.1,0.5-0.1,0.8
		c-0.1,0.3-0.1,1.2-0.2,2.5l0,0.4V34.2z"/>
	<path class="st0" d="M203.8,34.7c-1.4,1.2-2.6,2.1-3.6,2.6s-1.8,0.8-2.4,0.8c-0.7,0-1.3-0.3-1.7-0.9s-0.6-1.3-0.6-2.2
		c0-1.2,0.2-2.6,0.7-4.3c0.5-1.7,0.8-2.7,1-3c0.2-0.3,0.6-0.5,1.1-0.5c0.2,0,0.4,0.1,0.5,0.4c0.1,0.2,0.2,0.5,0.2,0.8
		c0,0.2-0.1,0.4-0.3,0.7c-0.4,0.7-0.6,1.1-0.6,1.2c0,0.1-0.2,0.5-0.4,1.4c-0.3,0.8-0.4,1.6-0.4,2.3c0,0.3,0.1,0.7,0.2,1.2
		c0.1,0.5,0.4,0.8,0.8,0.8c0.4,0,0.9-0.1,1.5-0.4c0.6-0.3,1.3-0.7,2-1.2s1.3-1,1.5-1.4s0.4-0.8,0.6-1.2c0.1-0.4,0.2-1.4,0.2-2.9
		c0-1.5,0.4-2.2,1.1-2.2c0.4,0,0.7,0.1,0.8,0.3c0.1,0.2,0.2,0.6,0.2,1.2c0,0.5,0,1.1-0.1,1.9c-0.1,0.9-0.1,1.6-0.2,2
		c-0.1,2.1-0.4,4.1-0.8,6.2c-0.4,2.1-1.1,3.8-1.9,5.2c-0.8,1.4-2,2.1-3.4,2.1c-1.5,0-2.8-0.4-3.9-1.2s-1.7-1.4-1.7-1.9
		c0-0.2,0.1-0.5,0.2-0.7c0.1-0.2,0.3-0.4,0.4-0.4c0.1,0,0.2,0.1,0.3,0.2c1,1.5,2.5,2.3,4.6,2.3c1.1,0,2-1,2.7-2.9
		c0.7-1.9,1.1-3.7,1.2-5.4C203.8,35.4,203.8,35,203.8,34.7z"/>
	<path class="st0" d="M212.4,39.2c-1,0-1.9-0.4-2.5-1.2c-0.7-0.8-1-1.7-1-2.9c0-1.9,0.6-3.8,1.9-5.7c1.3-1.9,2.9-2.8,4.7-2.8
		c1.2,0,2.2,0.5,2.9,1.4c0.7,0.9,1.1,2,1.1,3.3c0,1.9-0.8,3.7-2.3,5.4C215.7,38.4,214.1,39.2,212.4,39.2z M210.8,34.9
		c0,0.8,0.2,1.4,0.5,1.9c0.3,0.5,0.7,0.7,1.3,0.7c1.1,0,2.2-0.6,3.4-1.8c1.1-1.2,1.7-2.6,1.7-4.1c0-0.9-0.2-1.7-0.6-2.2
		c-0.4-0.6-1-0.9-1.7-0.9c-1.2,0-2.2,0.7-3.1,2.2S210.8,33.6,210.8,34.9z"/>
	<path class="st0" d="M230,33.8c-1,1.6-1.9,2.9-2.9,3.7c-1,0.9-1.9,1.3-2.8,1.3c-0.5,0-1-0.3-1.5-0.9c-0.5-0.6-0.8-1.5-0.8-2.7
		c0-1,0.2-2.4,0.7-4.3c0.4-1.6,0.6-2.7,0.6-3.4c0.2-0.4,0.6-0.7,1-0.7c0.3,0,0.6,0.1,0.8,0.3c0.2,0.2,0.3,0.5,0.3,0.7
		c0,0.5-0.2,1.3-0.5,2.2c-0.7,1.9-1,3.5-1,4.8c0,1.2,0.3,1.8,0.9,1.8c0.7,0,1.6-0.6,2.8-1.9c1.1-1.2,2.1-3,2.9-5.2
		c0.3-0.9,0.6-1.5,0.8-1.7c0.2-0.3,0.5-0.4,0.8-0.4c0.5,0,0.8,0.3,0.8,1c0,0.1-0.1,0.4-0.2,0.8c-0.4,1.6-0.7,3.2-0.7,4.6
		c0,1.8,0.3,2.9,0.9,3.4c0.3,0.3,0.4,0.5,0.4,0.7c0,0.2-0.2,0.4-0.5,0.6s-0.6,0.3-0.8,0.3c-0.5,0-0.9-0.4-1.3-1.2
		c-0.3-0.8-0.5-1.9-0.5-3.4v-0.4C230,34,230,33.9,230,33.8z"/>
	<path class="st0" d="M238.4,34.2c0.1-0.1,0.2-0.3,0.3-0.6c0.5-1.2,1-2.1,1.4-2.7c0.4-0.7,0.9-1.3,1.4-1.9c0.5-0.6,1-1.1,1.4-1.4
		s0.8-0.5,1.1-0.7c0.3-0.1,0.7-0.2,1-0.2c0.7,0,1.2,0.2,1.6,0.6s0.6,0.9,0.6,1.4c0,0.2-0.1,0.4-0.2,0.6s-0.4,0.3-0.7,0.3
		c-0.3,0-0.6-0.1-0.9-0.4c-0.3-0.3-0.5-0.4-0.8-0.4c-0.8,0-1.9,0.9-3.2,2.8c-1.4,1.9-2.2,4-2.5,6.2c-0.1,0.6-0.2,1-0.4,1.2
		c-0.2,0.2-0.5,0.3-0.9,0.3c-0.4,0-0.6-0.3-0.8-0.8c-0.2-0.5-0.2-1.5-0.2-2.8c0-0.4,0-1.1,0.1-2.3c0-1.4,0.1-2.6,0.3-3.4
		c0-0.1,0.1-0.5,0.1-1c0.1-0.6,0.1-1,0.2-1.2c0.1-0.2,0.2-0.4,0.5-0.6c0.2-0.2,0.5-0.3,0.8-0.3c0.3,0,0.5,0.1,0.6,0.3
		c0.1,0.2,0.2,0.4,0.2,0.6c0,0.3-0.1,0.7-0.2,1.2c-0.2,0.6-0.3,1-0.3,1.2c0,0.3-0.1,0.5-0.1,0.8c-0.1,0.3-0.2,1.2-0.2,2.5l0,0.4
		V34.2z"/>
	<path class="st0" d="M265.9,31.3c-0.2,0-0.7,0.9-1.5,2.6c-0.7,1.4-1.3,2.7-2,3.8c-0.7,1.1-1.2,1.7-1.5,1.7c-0.9,0-1.8-1.4-2.6-4.1
		c-0.8-2.8-1.2-5-1.2-6.7c0-0.5,0.1-1,0.4-1.4c0.3-0.4,0.6-0.6,1-0.6c0.1,0,0.1,0,0.3,0s0.3,0.1,0.5,0.4c0.2,0.2,0.3,0.5,0.3,0.7v0
		c0,0.1,0,0.5-0.1,1.1c-0.1,0.5-0.1,1.1-0.1,1.8c0,1.1,0.2,2.3,0.6,3.7s0.8,2,1.1,2c0.2,0,0.9-1.1,2.1-3.4c0.7-1.4,1.3-2.4,1.6-3
		l0.4-0.7c0.5-1,1-1.7,1.5-2c0.6,0.1,1,0.4,1,1c0,0.2,0,0.3,0,0.5c0,0.1,0,0.3,0,0.5c0,1.4,0.4,2.8,1.1,4.3c0.7,1.5,1.2,2.3,1.5,2.3
		c0.2,0,0.6-0.8,1.1-2.4c0.7-2.2,1.3-3.8,1.8-4.8c0.6-1.1,1-1.7,1.2-1.9c0.3-0.2,0.6-0.3,0.9-0.3c0.2,0,0.3,0.1,0.5,0.2
		c0.1,0.2,0.2,0.3,0.2,0.5c0,0.3,0,0.5-0.1,0.6c-0.9,1.2-1.8,3.1-2.7,5.7c-0.7,2.2-1.2,3.6-1.5,4.2c-0.3,0.6-0.5,0.9-0.7,0.9
		c-0.9,0-1.6-0.3-2.2-1c-0.6-0.7-1.3-2.4-2.3-5.3C266.1,31.8,266,31.5,265.9,31.3z"/>
	<path class="st0" d="M279.4,36.2c0,0.6,0.1,1.2,0.2,1.9c0,0.1,0,0.2,0,0.3c0,0.1-0.1,0.3-0.4,0.5c-0.2,0.2-0.5,0.3-0.8,0.3
		c-0.7,0-1.1-0.7-1.1-2c0-1.4,0.3-3.6,0.9-6.5c0.2-1,0.3-1.7,0.3-1.9c0-0.5,0.1-0.9,0.3-1.2s0.4-0.5,0.7-0.5c0.4,0,0.7,0.1,0.9,0.3
		c0.2,0.2,0.3,0.4,0.3,0.6c0,0.2-0.1,0.5-0.2,0.9c-0.6,2-0.9,3.4-1,4.2C279.5,34,279.4,35,279.4,36.2z M280.9,23.7
		c-0.2,0-0.3-0.2-0.4-0.5c0-0.1-0.1-0.2-0.1-0.3c-0.2-0.5-0.3-0.9-0.3-1.3c0-0.3,0.2-0.6,0.5-0.9c0.4-0.3,0.8-0.5,1.2-0.5
		c0.2,0,0.5,0.1,0.7,0.3c0.3,0.2,0.4,0.3,0.4,0.5c0,0.2-0.1,0.7-0.3,1.3c-0.2,0.6-0.5,1-0.9,1.2C281.4,23.6,281.1,23.7,280.9,23.7z"
		/>
	<path class="st0" d="M291.5,30.1c-0.4,0-0.8,0.3-1.3,0.8c-0.5,0.5-1.2,1.6-2.1,3.4c-1.2,2.4-2,3.7-2.4,4.1s-0.7,0.5-0.9,0.5
		c-0.9,0-1.3-0.4-1.3-1.3c0-0.4,0.1-0.9,0.2-1.5c0.4-2.3,0.6-4.6,0.6-7.1c0-0.3,0.1-0.6,0.4-0.9c0.2-0.3,0.5-0.5,0.7-0.5
		c0.4,0,0.7,0.1,0.8,0.4s0.2,0.7,0.2,1.4c0,0.8-0.2,2.3-0.7,4.7c-0.2,0.8-0.2,1.3-0.2,1.5c0,0.1,0,0.2,0.1,0.2
		c0.1,0,0.6-0.9,1.6-2.7c0.9-1.8,1.8-3.1,2.5-3.8c0.7-0.7,1.5-1.1,2.3-1.1c0.7,0,1.2,0.3,1.6,0.9c0.4,0.6,0.7,1.7,0.9,3.4
		c0.2,1.8,0.4,3,0.6,3.4c0.2,0.5,0.4,0.7,0.8,0.7c0.2,0,0.5-0.1,0.9-0.2c0.1,0,0.1,0,0.1,0c0.3,0,0.5,0.2,0.5,0.6
		c0,0.3-0.2,0.7-0.7,1s-1,0.6-1.6,0.6c-0.6,0-1.1-0.3-1.5-0.8s-0.6-1.9-0.8-4C292.7,31.2,292.2,30.1,291.5,30.1z"/>
</g>
</svg>
